G04 #@! TF.FileFunction,Legend,Top*
%FSLAX46Y46*%
G04 Gerber Fmt 4.6, Leading zero omitted, Abs format (unit mm)*
G04 Created by KiCad (PCBNEW 4.0.2-stable) date 30/04/2017 18:34:37*
%MOMM*%
G01*
G04 APERTURE LIST*
%ADD10C,0.100000*%
%ADD11C,0.180000*%
%ADD12C,0.101600*%
%ADD13C,0.134112*%
%ADD14C,0.150000*%
%ADD15C,0.152400*%
%ADD16C,0.762000*%
%ADD17C,0.200000*%
%ADD18C,0.203200*%
%ADD19C,0.177800*%
%ADD20C,0.127000*%
%ADD21C,0.024384*%
%ADD22C,1.822400*%
%ADD23O,1.720800X3.041600*%
%ADD24O,1.924000X3.448000*%
%ADD25C,3.100000*%
%ADD26C,1.670000*%
%ADD27C,1.416000*%
G04 APERTURE END LIST*
D10*
D11*
X70478571Y-123020000D02*
X68978571Y-123020000D01*
X68978571Y-122448572D01*
X69050000Y-122305714D01*
X69121429Y-122234286D01*
X69264286Y-122162857D01*
X69478571Y-122162857D01*
X69621429Y-122234286D01*
X69692857Y-122305714D01*
X69764286Y-122448572D01*
X69764286Y-123020000D01*
X68978571Y-121662857D02*
X70478571Y-121305714D01*
X69407143Y-121020000D01*
X70478571Y-120734286D01*
X68978571Y-120377143D01*
X70478571Y-118948571D02*
X69764286Y-119448571D01*
X70478571Y-119805714D02*
X68978571Y-119805714D01*
X68978571Y-119234286D01*
X69050000Y-119091428D01*
X69121429Y-119020000D01*
X69264286Y-118948571D01*
X69478571Y-118948571D01*
X69621429Y-119020000D01*
X69692857Y-119091428D01*
X69764286Y-119234286D01*
X69764286Y-119805714D01*
X52300001Y-132627143D02*
X52514287Y-132698571D01*
X52871430Y-132698571D01*
X53014287Y-132627143D01*
X53085716Y-132555714D01*
X53157144Y-132412857D01*
X53157144Y-132270000D01*
X53085716Y-132127143D01*
X53014287Y-132055714D01*
X52871430Y-131984286D01*
X52585716Y-131912857D01*
X52442858Y-131841429D01*
X52371430Y-131770000D01*
X52300001Y-131627143D01*
X52300001Y-131484286D01*
X52371430Y-131341429D01*
X52442858Y-131270000D01*
X52585716Y-131198571D01*
X52942858Y-131198571D01*
X53157144Y-131270000D01*
X53728572Y-132270000D02*
X54442858Y-132270000D01*
X53585715Y-132698571D02*
X54085715Y-131198571D01*
X54585715Y-132698571D01*
X55085715Y-132698571D02*
X55085715Y-131198571D01*
X55585715Y-132270000D01*
X56085715Y-131198571D01*
X56085715Y-132698571D01*
X56728572Y-131341429D02*
X56800001Y-131270000D01*
X56942858Y-131198571D01*
X57300001Y-131198571D01*
X57442858Y-131270000D01*
X57514287Y-131341429D01*
X57585715Y-131484286D01*
X57585715Y-131627143D01*
X57514287Y-131841429D01*
X56657144Y-132698571D01*
X57585715Y-132698571D01*
X58514286Y-131198571D02*
X58657143Y-131198571D01*
X58800000Y-131270000D01*
X58871429Y-131341429D01*
X58942858Y-131484286D01*
X59014286Y-131770000D01*
X59014286Y-132127143D01*
X58942858Y-132412857D01*
X58871429Y-132555714D01*
X58800000Y-132627143D01*
X58657143Y-132698571D01*
X58514286Y-132698571D01*
X58371429Y-132627143D01*
X58300000Y-132555714D01*
X58228572Y-132412857D01*
X58157143Y-132127143D01*
X58157143Y-131770000D01*
X58228572Y-131484286D01*
X58300000Y-131341429D01*
X58371429Y-131270000D01*
X58514286Y-131198571D01*
X59657143Y-132127143D02*
X60800000Y-132127143D01*
X61442857Y-131341429D02*
X61514286Y-131270000D01*
X61657143Y-131198571D01*
X62014286Y-131198571D01*
X62157143Y-131270000D01*
X62228572Y-131341429D01*
X62300000Y-131484286D01*
X62300000Y-131627143D01*
X62228572Y-131841429D01*
X61371429Y-132698571D01*
X62300000Y-132698571D01*
X62942857Y-132698571D02*
X62942857Y-131698571D01*
X62942857Y-131841429D02*
X63014285Y-131770000D01*
X63157143Y-131698571D01*
X63371428Y-131698571D01*
X63514285Y-131770000D01*
X63585714Y-131912857D01*
X63585714Y-132698571D01*
X63585714Y-131912857D02*
X63657143Y-131770000D01*
X63800000Y-131698571D01*
X64014285Y-131698571D01*
X64157143Y-131770000D01*
X64228571Y-131912857D01*
X64228571Y-132698571D01*
X64942857Y-132698571D02*
X64942857Y-131698571D01*
X64942857Y-131841429D02*
X65014285Y-131770000D01*
X65157143Y-131698571D01*
X65371428Y-131698571D01*
X65514285Y-131770000D01*
X65585714Y-131912857D01*
X65585714Y-132698571D01*
X65585714Y-131912857D02*
X65657143Y-131770000D01*
X65800000Y-131698571D01*
X66014285Y-131698571D01*
X66157143Y-131770000D01*
X66228571Y-131912857D01*
X66228571Y-132698571D01*
X52300001Y-120627143D02*
X52514287Y-120698571D01*
X52871430Y-120698571D01*
X53014287Y-120627143D01*
X53085716Y-120555714D01*
X53157144Y-120412857D01*
X53157144Y-120270000D01*
X53085716Y-120127143D01*
X53014287Y-120055714D01*
X52871430Y-119984286D01*
X52585716Y-119912857D01*
X52442858Y-119841429D01*
X52371430Y-119770000D01*
X52300001Y-119627143D01*
X52300001Y-119484286D01*
X52371430Y-119341429D01*
X52442858Y-119270000D01*
X52585716Y-119198571D01*
X52942858Y-119198571D01*
X53157144Y-119270000D01*
X53728572Y-120270000D02*
X54442858Y-120270000D01*
X53585715Y-120698571D02*
X54085715Y-119198571D01*
X54585715Y-120698571D01*
X55085715Y-120698571D02*
X55085715Y-119198571D01*
X55585715Y-120270000D01*
X56085715Y-119198571D01*
X56085715Y-120698571D01*
X57585715Y-120698571D02*
X56728572Y-120698571D01*
X57157144Y-120698571D02*
X57157144Y-119198571D01*
X57014287Y-119412857D01*
X56871429Y-119555714D01*
X56728572Y-119627143D01*
X58514286Y-119198571D02*
X58657143Y-119198571D01*
X58800000Y-119270000D01*
X58871429Y-119341429D01*
X58942858Y-119484286D01*
X59014286Y-119770000D01*
X59014286Y-120127143D01*
X58942858Y-120412857D01*
X58871429Y-120555714D01*
X58800000Y-120627143D01*
X58657143Y-120698571D01*
X58514286Y-120698571D01*
X58371429Y-120627143D01*
X58300000Y-120555714D01*
X58228572Y-120412857D01*
X58157143Y-120127143D01*
X58157143Y-119770000D01*
X58228572Y-119484286D01*
X58300000Y-119341429D01*
X58371429Y-119270000D01*
X58514286Y-119198571D01*
X59657143Y-120127143D02*
X60800000Y-120127143D01*
X61442857Y-119341429D02*
X61514286Y-119270000D01*
X61657143Y-119198571D01*
X62014286Y-119198571D01*
X62157143Y-119270000D01*
X62228572Y-119341429D01*
X62300000Y-119484286D01*
X62300000Y-119627143D01*
X62228572Y-119841429D01*
X61371429Y-120698571D01*
X62300000Y-120698571D01*
X62942857Y-120698571D02*
X62942857Y-119698571D01*
X62942857Y-119841429D02*
X63014285Y-119770000D01*
X63157143Y-119698571D01*
X63371428Y-119698571D01*
X63514285Y-119770000D01*
X63585714Y-119912857D01*
X63585714Y-120698571D01*
X63585714Y-119912857D02*
X63657143Y-119770000D01*
X63800000Y-119698571D01*
X64014285Y-119698571D01*
X64157143Y-119770000D01*
X64228571Y-119912857D01*
X64228571Y-120698571D01*
X64942857Y-120698571D02*
X64942857Y-119698571D01*
X64942857Y-119841429D02*
X65014285Y-119770000D01*
X65157143Y-119698571D01*
X65371428Y-119698571D01*
X65514285Y-119770000D01*
X65585714Y-119912857D01*
X65585714Y-120698571D01*
X65585714Y-119912857D02*
X65657143Y-119770000D01*
X65800000Y-119698571D01*
X66014285Y-119698571D01*
X66157143Y-119770000D01*
X66228571Y-119912857D01*
X66228571Y-120698571D01*
D12*
X79602381Y-114194524D02*
X79602381Y-112924524D01*
X80932857Y-114073571D02*
X80872381Y-114134048D01*
X80690952Y-114194524D01*
X80570000Y-114194524D01*
X80388572Y-114134048D01*
X80267619Y-114013095D01*
X80207143Y-113892143D01*
X80146667Y-113650238D01*
X80146667Y-113468810D01*
X80207143Y-113226905D01*
X80267619Y-113105952D01*
X80388572Y-112985000D01*
X80570000Y-112924524D01*
X80690952Y-112924524D01*
X80872381Y-112985000D01*
X80932857Y-113045476D01*
X81477143Y-113529286D02*
X81900476Y-113529286D01*
X82081905Y-114194524D02*
X81477143Y-114194524D01*
X81477143Y-112924524D01*
X82081905Y-112924524D01*
X82626191Y-113710714D02*
X83593810Y-113710714D01*
X84138096Y-113831667D02*
X84742858Y-113831667D01*
X84017143Y-114194524D02*
X84440477Y-112924524D01*
X84863810Y-114194524D01*
X85105714Y-112924524D02*
X85529048Y-114194524D01*
X85952381Y-112924524D01*
X87101428Y-114194524D02*
X86678095Y-113589762D01*
X86375714Y-114194524D02*
X86375714Y-112924524D01*
X86859523Y-112924524D01*
X86980476Y-112985000D01*
X87040952Y-113045476D01*
X87101428Y-113166429D01*
X87101428Y-113347857D01*
X87040952Y-113468810D01*
X86980476Y-113529286D01*
X86859523Y-113589762D01*
X86375714Y-113589762D01*
X58291905Y-114134048D02*
X58473333Y-114194524D01*
X58775714Y-114194524D01*
X58896667Y-114134048D01*
X58957143Y-114073571D01*
X59017619Y-113952619D01*
X59017619Y-113831667D01*
X58957143Y-113710714D01*
X58896667Y-113650238D01*
X58775714Y-113589762D01*
X58533810Y-113529286D01*
X58412857Y-113468810D01*
X58352381Y-113408333D01*
X58291905Y-113287381D01*
X58291905Y-113166429D01*
X58352381Y-113045476D01*
X58412857Y-112985000D01*
X58533810Y-112924524D01*
X58836190Y-112924524D01*
X59017619Y-112985000D01*
X59501429Y-113831667D02*
X60106191Y-113831667D01*
X59380476Y-114194524D02*
X59803810Y-112924524D01*
X60227143Y-114194524D01*
X60650476Y-114194524D02*
X60650476Y-112924524D01*
X61073809Y-113831667D01*
X61497143Y-112924524D01*
X61497143Y-114194524D01*
X62767143Y-114194524D02*
X62041429Y-114194524D01*
X62404286Y-114194524D02*
X62404286Y-112924524D01*
X62283334Y-113105952D01*
X62162381Y-113226905D01*
X62041429Y-113287381D01*
X63553334Y-112924524D02*
X63674286Y-112924524D01*
X63795238Y-112985000D01*
X63855715Y-113045476D01*
X63916191Y-113166429D01*
X63976667Y-113408333D01*
X63976667Y-113710714D01*
X63916191Y-113952619D01*
X63855715Y-114073571D01*
X63795238Y-114134048D01*
X63674286Y-114194524D01*
X63553334Y-114194524D01*
X63432381Y-114134048D01*
X63371905Y-114073571D01*
X63311429Y-113952619D01*
X63250953Y-113710714D01*
X63250953Y-113408333D01*
X63311429Y-113166429D01*
X63371905Y-113045476D01*
X63432381Y-112985000D01*
X63553334Y-112924524D01*
X64520953Y-113710714D02*
X65488572Y-113710714D01*
X66758572Y-114194524D02*
X66032858Y-114194524D01*
X66395715Y-114194524D02*
X66395715Y-112924524D01*
X66274763Y-113105952D01*
X66153810Y-113226905D01*
X66032858Y-113287381D01*
X67302858Y-114073571D02*
X67363334Y-114134048D01*
X67302858Y-114194524D01*
X67242382Y-114134048D01*
X67302858Y-114073571D01*
X67302858Y-114194524D01*
X67847144Y-113045476D02*
X67907620Y-112985000D01*
X68028572Y-112924524D01*
X68330953Y-112924524D01*
X68451906Y-112985000D01*
X68512382Y-113045476D01*
X68572858Y-113166429D01*
X68572858Y-113287381D01*
X68512382Y-113468810D01*
X67786668Y-114194524D01*
X68572858Y-114194524D01*
X68996192Y-112924524D02*
X69842858Y-112924524D01*
X69298573Y-114194524D01*
X74602381Y-157154724D02*
X74602381Y-155884724D01*
X75146667Y-157154724D02*
X75146667Y-156489486D01*
X75086190Y-156368533D01*
X74965238Y-156308057D01*
X74783810Y-156308057D01*
X74662857Y-156368533D01*
X74602381Y-156429010D01*
X75570000Y-156308057D02*
X76053810Y-156308057D01*
X75751429Y-155884724D02*
X75751429Y-156973295D01*
X75811905Y-157094248D01*
X75932858Y-157154724D01*
X76053810Y-157154724D01*
X76295714Y-156308057D02*
X76779524Y-156308057D01*
X76477143Y-155884724D02*
X76477143Y-156973295D01*
X76537619Y-157094248D01*
X76658572Y-157154724D01*
X76779524Y-157154724D01*
X77202857Y-156308057D02*
X77202857Y-157578057D01*
X77202857Y-156368533D02*
X77323809Y-156308057D01*
X77565714Y-156308057D01*
X77686666Y-156368533D01*
X77747143Y-156429010D01*
X77807619Y-156549962D01*
X77807619Y-156912819D01*
X77747143Y-157033771D01*
X77686666Y-157094248D01*
X77565714Y-157154724D01*
X77323809Y-157154724D01*
X77202857Y-157094248D01*
X78351905Y-157033771D02*
X78412381Y-157094248D01*
X78351905Y-157154724D01*
X78291429Y-157094248D01*
X78351905Y-157033771D01*
X78351905Y-157154724D01*
X78351905Y-156368533D02*
X78412381Y-156429010D01*
X78351905Y-156489486D01*
X78291429Y-156429010D01*
X78351905Y-156368533D01*
X78351905Y-156489486D01*
X79863810Y-155824248D02*
X78775238Y-157457105D01*
X81194286Y-155824248D02*
X80105714Y-157457105D01*
X82161905Y-157154724D02*
X82161905Y-156489486D01*
X82101428Y-156368533D01*
X81980476Y-156308057D01*
X81738571Y-156308057D01*
X81617619Y-156368533D01*
X82161905Y-157094248D02*
X82040952Y-157154724D01*
X81738571Y-157154724D01*
X81617619Y-157094248D01*
X81557143Y-156973295D01*
X81557143Y-156852343D01*
X81617619Y-156731390D01*
X81738571Y-156670914D01*
X82040952Y-156670914D01*
X82161905Y-156610438D01*
X82585238Y-156308057D02*
X83069048Y-156308057D01*
X82766667Y-155884724D02*
X82766667Y-156973295D01*
X82827143Y-157094248D01*
X82948096Y-157154724D01*
X83069048Y-157154724D01*
X83673810Y-157154724D02*
X83552857Y-157094248D01*
X83492381Y-157033771D01*
X83431905Y-156912819D01*
X83431905Y-156549962D01*
X83492381Y-156429010D01*
X83552857Y-156368533D01*
X83673810Y-156308057D01*
X83855238Y-156308057D01*
X83976190Y-156368533D01*
X84036667Y-156429010D01*
X84097143Y-156549962D01*
X84097143Y-156912819D01*
X84036667Y-157033771D01*
X83976190Y-157094248D01*
X83855238Y-157154724D01*
X83673810Y-157154724D01*
X84822858Y-157154724D02*
X84701905Y-157094248D01*
X84641429Y-157033771D01*
X84580953Y-156912819D01*
X84580953Y-156549962D01*
X84641429Y-156429010D01*
X84701905Y-156368533D01*
X84822858Y-156308057D01*
X85004286Y-156308057D01*
X85125238Y-156368533D01*
X85185715Y-156429010D01*
X85246191Y-156549962D01*
X85246191Y-156912819D01*
X85185715Y-157033771D01*
X85125238Y-157094248D01*
X85004286Y-157154724D01*
X84822858Y-157154724D01*
X85790477Y-157154724D02*
X85790477Y-156308057D01*
X85790477Y-156429010D02*
X85850953Y-156368533D01*
X85971906Y-156308057D01*
X86153334Y-156308057D01*
X86274286Y-156368533D01*
X86334763Y-156489486D01*
X86334763Y-157154724D01*
X86334763Y-156489486D02*
X86395239Y-156368533D01*
X86516191Y-156308057D01*
X86697620Y-156308057D01*
X86818572Y-156368533D01*
X86879048Y-156489486D01*
X86879048Y-157154724D01*
X87483810Y-156308057D02*
X87483810Y-157154724D01*
X87483810Y-156429010D02*
X87544286Y-156368533D01*
X87665239Y-156308057D01*
X87846667Y-156308057D01*
X87967619Y-156368533D01*
X88028096Y-156489486D01*
X88028096Y-157154724D01*
X89116667Y-157094248D02*
X88995715Y-157154724D01*
X88753810Y-157154724D01*
X88632858Y-157094248D01*
X88572382Y-156973295D01*
X88572382Y-156489486D01*
X88632858Y-156368533D01*
X88753810Y-156308057D01*
X88995715Y-156308057D01*
X89116667Y-156368533D01*
X89177144Y-156489486D01*
X89177144Y-156610438D01*
X88572382Y-156731390D01*
X89540000Y-156308057D02*
X90023810Y-156308057D01*
X89721429Y-155884724D02*
X89721429Y-156973295D01*
X89781905Y-157094248D01*
X89902858Y-157154724D01*
X90023810Y-157154724D01*
X90447143Y-157033771D02*
X90507619Y-157094248D01*
X90447143Y-157154724D01*
X90386667Y-157094248D01*
X90447143Y-157033771D01*
X90447143Y-157154724D01*
X91051905Y-156308057D02*
X91051905Y-157154724D01*
X91051905Y-156429010D02*
X91112381Y-156368533D01*
X91233334Y-156308057D01*
X91414762Y-156308057D01*
X91535714Y-156368533D01*
X91596191Y-156489486D01*
X91596191Y-157154724D01*
X92684762Y-157094248D02*
X92563810Y-157154724D01*
X92321905Y-157154724D01*
X92200953Y-157094248D01*
X92140477Y-156973295D01*
X92140477Y-156489486D01*
X92200953Y-156368533D01*
X92321905Y-156308057D01*
X92563810Y-156308057D01*
X92684762Y-156368533D01*
X92745239Y-156489486D01*
X92745239Y-156610438D01*
X92140477Y-156731390D01*
X93108095Y-156308057D02*
X93591905Y-156308057D01*
X93289524Y-155884724D02*
X93289524Y-156973295D01*
X93350000Y-157094248D01*
X93470953Y-157154724D01*
X93591905Y-157154724D01*
X74602381Y-159034324D02*
X74602381Y-157764324D01*
X75932857Y-158913371D02*
X75872381Y-158973848D01*
X75690952Y-159034324D01*
X75570000Y-159034324D01*
X75388572Y-158973848D01*
X75267619Y-158852895D01*
X75207143Y-158731943D01*
X75146667Y-158490038D01*
X75146667Y-158308610D01*
X75207143Y-158066705D01*
X75267619Y-157945752D01*
X75388572Y-157824800D01*
X75570000Y-157764324D01*
X75690952Y-157764324D01*
X75872381Y-157824800D01*
X75932857Y-157885276D01*
X76477143Y-158369086D02*
X76900476Y-158369086D01*
X77081905Y-159034324D02*
X76477143Y-159034324D01*
X76477143Y-157764324D01*
X77081905Y-157764324D01*
X78593810Y-159034324D02*
X78593810Y-157764324D01*
X79138096Y-159034324D02*
X79138096Y-158369086D01*
X79077619Y-158248133D01*
X78956667Y-158187657D01*
X78775239Y-158187657D01*
X78654286Y-158248133D01*
X78593810Y-158308610D01*
X80226667Y-158973848D02*
X80105715Y-159034324D01*
X79863810Y-159034324D01*
X79742858Y-158973848D01*
X79682382Y-158852895D01*
X79682382Y-158369086D01*
X79742858Y-158248133D01*
X79863810Y-158187657D01*
X80105715Y-158187657D01*
X80226667Y-158248133D01*
X80287144Y-158369086D01*
X80287144Y-158490038D01*
X79682382Y-158610990D01*
X81375715Y-159034324D02*
X81375715Y-158369086D01*
X81315238Y-158248133D01*
X81194286Y-158187657D01*
X80952381Y-158187657D01*
X80831429Y-158248133D01*
X81375715Y-158973848D02*
X81254762Y-159034324D01*
X80952381Y-159034324D01*
X80831429Y-158973848D01*
X80770953Y-158852895D01*
X80770953Y-158731943D01*
X80831429Y-158610990D01*
X80952381Y-158550514D01*
X81254762Y-158550514D01*
X81375715Y-158490038D01*
X82524763Y-159034324D02*
X82524763Y-157764324D01*
X82524763Y-158973848D02*
X82403810Y-159034324D01*
X82161906Y-159034324D01*
X82040953Y-158973848D01*
X81980477Y-158913371D01*
X81920001Y-158792419D01*
X81920001Y-158429562D01*
X81980477Y-158308610D01*
X82040953Y-158248133D01*
X82161906Y-158187657D01*
X82403810Y-158187657D01*
X82524763Y-158248133D01*
X83613334Y-158973848D02*
X83492382Y-159034324D01*
X83250477Y-159034324D01*
X83129525Y-158973848D01*
X83069049Y-158852895D01*
X83069049Y-158369086D01*
X83129525Y-158248133D01*
X83250477Y-158187657D01*
X83492382Y-158187657D01*
X83613334Y-158248133D01*
X83673811Y-158369086D01*
X83673811Y-158490038D01*
X83069049Y-158610990D01*
X84218096Y-159034324D02*
X84218096Y-158187657D01*
X84218096Y-158429562D02*
X84278572Y-158308610D01*
X84339048Y-158248133D01*
X84460001Y-158187657D01*
X84580953Y-158187657D01*
X86516191Y-159034324D02*
X86516191Y-158369086D01*
X86455714Y-158248133D01*
X86334762Y-158187657D01*
X86092857Y-158187657D01*
X85971905Y-158248133D01*
X86516191Y-158973848D02*
X86395238Y-159034324D01*
X86092857Y-159034324D01*
X85971905Y-158973848D01*
X85911429Y-158852895D01*
X85911429Y-158731943D01*
X85971905Y-158610990D01*
X86092857Y-158550514D01*
X86395238Y-158550514D01*
X86516191Y-158490038D01*
X87665239Y-159034324D02*
X87665239Y-157764324D01*
X87665239Y-158973848D02*
X87544286Y-159034324D01*
X87302382Y-159034324D01*
X87181429Y-158973848D01*
X87120953Y-158913371D01*
X87060477Y-158792419D01*
X87060477Y-158429562D01*
X87120953Y-158308610D01*
X87181429Y-158248133D01*
X87302382Y-158187657D01*
X87544286Y-158187657D01*
X87665239Y-158248133D01*
X88814287Y-159034324D02*
X88814287Y-158369086D01*
X88753810Y-158248133D01*
X88632858Y-158187657D01*
X88390953Y-158187657D01*
X88270001Y-158248133D01*
X88814287Y-158973848D02*
X88693334Y-159034324D01*
X88390953Y-159034324D01*
X88270001Y-158973848D01*
X88209525Y-158852895D01*
X88209525Y-158731943D01*
X88270001Y-158610990D01*
X88390953Y-158550514D01*
X88693334Y-158550514D01*
X88814287Y-158490038D01*
X89419049Y-158187657D02*
X89419049Y-159457657D01*
X89419049Y-158248133D02*
X89540001Y-158187657D01*
X89781906Y-158187657D01*
X89902858Y-158248133D01*
X89963335Y-158308610D01*
X90023811Y-158429562D01*
X90023811Y-158792419D01*
X89963335Y-158913371D01*
X89902858Y-158973848D01*
X89781906Y-159034324D01*
X89540001Y-159034324D01*
X89419049Y-158973848D01*
X90386668Y-158187657D02*
X90870478Y-158187657D01*
X90568097Y-157764324D02*
X90568097Y-158852895D01*
X90628573Y-158973848D01*
X90749526Y-159034324D01*
X90870478Y-159034324D01*
X91777620Y-158973848D02*
X91656668Y-159034324D01*
X91414763Y-159034324D01*
X91293811Y-158973848D01*
X91233335Y-158852895D01*
X91233335Y-158369086D01*
X91293811Y-158248133D01*
X91414763Y-158187657D01*
X91656668Y-158187657D01*
X91777620Y-158248133D01*
X91838097Y-158369086D01*
X91838097Y-158490038D01*
X91233335Y-158610990D01*
X92382382Y-159034324D02*
X92382382Y-158187657D01*
X92382382Y-158429562D02*
X92442858Y-158308610D01*
X92503334Y-158248133D01*
X92624287Y-158187657D01*
X92745239Y-158187657D01*
X53672619Y-128209524D02*
X52946905Y-128209524D01*
X53309762Y-128209524D02*
X53309762Y-126939524D01*
X53188810Y-127120952D01*
X53067857Y-127241905D01*
X52946905Y-127302381D01*
X53672619Y-140909524D02*
X52946905Y-140909524D01*
X53309762Y-140909524D02*
X53309762Y-139639524D01*
X53188810Y-139820952D01*
X53067857Y-139941905D01*
X52946905Y-140002381D01*
X57767619Y-156094524D02*
X57041905Y-156094524D01*
X57404762Y-156094524D02*
X57404762Y-154824524D01*
X57283810Y-155005952D01*
X57162857Y-155126905D01*
X57041905Y-155187381D01*
X85767619Y-143594524D02*
X85041905Y-143594524D01*
X85404762Y-143594524D02*
X85404762Y-142324524D01*
X85283810Y-142505952D01*
X85162857Y-142626905D01*
X85041905Y-142687381D01*
X80767619Y-130594524D02*
X80041905Y-130594524D01*
X80404762Y-130594524D02*
X80404762Y-129324524D01*
X80283810Y-129505952D01*
X80162857Y-129626905D01*
X80041905Y-129687381D01*
X59267619Y-117094524D02*
X58541905Y-117094524D01*
X58904762Y-117094524D02*
X58904762Y-115824524D01*
X58783810Y-116005952D01*
X58662857Y-116126905D01*
X58541905Y-116187381D01*
X79072619Y-116779524D02*
X78346905Y-116779524D01*
X78709762Y-116779524D02*
X78709762Y-115509524D01*
X78588810Y-115690952D01*
X78467857Y-115811905D01*
X78346905Y-115872381D01*
X66396520Y-159074226D02*
X66583879Y-159035886D01*
X66845749Y-158884695D01*
X66920259Y-158771845D01*
X66942394Y-158689233D01*
X66934292Y-158554247D01*
X66873816Y-158449499D01*
X66760966Y-158374989D01*
X66678354Y-158352853D01*
X66543368Y-158360956D01*
X66303635Y-158429534D01*
X66168648Y-158437637D01*
X66086036Y-158415501D01*
X65973186Y-158340991D01*
X65912710Y-158236243D01*
X65904608Y-158101257D01*
X65926743Y-158018645D01*
X66001254Y-157905795D01*
X66263123Y-157754605D01*
X66450483Y-157716264D01*
X66946155Y-157849079D02*
X67365146Y-157607174D01*
X66891610Y-157391748D02*
X67435896Y-158334478D01*
X67548746Y-158408988D01*
X67683732Y-158400885D01*
X67788480Y-158340409D01*
X68626462Y-157856600D02*
X68293843Y-157280487D01*
X68180992Y-157205977D01*
X68046007Y-157214079D01*
X67836511Y-157335032D01*
X67762001Y-157447882D01*
X68596224Y-157804226D02*
X68521714Y-157917076D01*
X68259844Y-158068267D01*
X68124859Y-158076369D01*
X68012009Y-158001859D01*
X67951533Y-157897111D01*
X67943430Y-157762125D01*
X68017939Y-157649275D01*
X68279809Y-157498085D01*
X68354319Y-157385234D01*
X68569746Y-156911698D02*
X68988738Y-156669793D01*
X68515202Y-156454367D02*
X69059487Y-157397097D01*
X69172337Y-157471607D01*
X69307324Y-157463504D01*
X69412071Y-157403028D01*
X69826720Y-156185984D02*
X70250054Y-156919219D01*
X69355355Y-156458127D02*
X69687974Y-157034240D01*
X69800824Y-157108750D01*
X69935811Y-157100647D01*
X70092932Y-157009933D01*
X70167441Y-156897084D01*
X70189577Y-156814471D01*
X70691181Y-156594702D02*
X70826167Y-156586600D01*
X71035663Y-156465647D01*
X71110172Y-156352798D01*
X71102070Y-156217811D01*
X71071832Y-156165438D01*
X70958982Y-156090928D01*
X70823996Y-156099029D01*
X70666874Y-156189744D01*
X70531888Y-156197846D01*
X70419038Y-156123337D01*
X70388800Y-156070963D01*
X70380698Y-155935977D01*
X70455207Y-155823127D01*
X70612329Y-155732412D01*
X70747315Y-155724310D01*
X61479132Y-159096362D02*
X60844132Y-157996510D01*
X61263123Y-157754605D01*
X61398109Y-157746502D01*
X61480721Y-157768638D01*
X61593571Y-157843148D01*
X61684285Y-158000270D01*
X61692388Y-158135256D01*
X61670252Y-158217868D01*
X61595742Y-158330718D01*
X61176751Y-158572623D01*
X62736106Y-158370647D02*
X62601120Y-158378750D01*
X62518507Y-158356614D01*
X62405658Y-158282104D01*
X62224229Y-157967861D01*
X62216127Y-157832875D01*
X62238262Y-157750263D01*
X62312773Y-157637412D01*
X62469894Y-157546698D01*
X62604879Y-157538596D01*
X62687492Y-157560732D01*
X62800342Y-157635242D01*
X62981771Y-157949485D01*
X62989873Y-158084471D01*
X62967737Y-158167084D01*
X62893227Y-158279933D01*
X62736106Y-158370647D01*
X63046008Y-157214079D02*
X63678836Y-157826362D01*
X63585951Y-157181670D01*
X64097828Y-157584457D01*
X63883990Y-156730269D01*
X65115068Y-156927322D02*
X65040558Y-157040171D01*
X64831062Y-157161124D01*
X64696077Y-157169226D01*
X64583226Y-157094716D01*
X64341322Y-156675725D01*
X64333219Y-156540739D01*
X64407729Y-156427889D01*
X64617225Y-156306936D01*
X64752210Y-156298834D01*
X64865061Y-156373344D01*
X64925537Y-156478091D01*
X64462274Y-156885220D01*
X65669045Y-156677314D02*
X65245711Y-155944079D01*
X65366664Y-156153575D02*
X65358562Y-156018590D01*
X65380697Y-155935977D01*
X65455207Y-155823127D01*
X65559955Y-155762651D01*
X55687010Y-158087224D02*
X56315497Y-157724367D01*
X56636254Y-159005647D02*
X56001254Y-157905795D01*
X57788480Y-158340409D02*
X57455861Y-157764296D01*
X57343010Y-157689787D01*
X57208024Y-157697889D01*
X56998528Y-157818841D01*
X56924019Y-157931691D01*
X57758242Y-158288036D02*
X57683731Y-158400886D01*
X57421862Y-158552076D01*
X57286876Y-158560179D01*
X57174026Y-158485668D01*
X57113550Y-158380921D01*
X57105447Y-158245934D01*
X57179957Y-158133085D01*
X57441826Y-157981894D01*
X57516337Y-157869044D01*
X58312219Y-158038028D02*
X57888886Y-157304793D01*
X58009838Y-157514289D02*
X58001736Y-157379304D01*
X58023871Y-157296691D01*
X58098381Y-157183841D01*
X58203129Y-157123365D01*
X59041112Y-156639555D02*
X59555159Y-157529912D01*
X59563261Y-157664899D01*
X59541125Y-157747510D01*
X59466616Y-157860360D01*
X59309494Y-157951075D01*
X59174508Y-157959177D01*
X59434207Y-157320417D02*
X59359697Y-157433267D01*
X59150202Y-157554219D01*
X59015215Y-157562322D01*
X58932603Y-157540185D01*
X58819753Y-157465676D01*
X58638325Y-157151432D01*
X58630223Y-157016447D01*
X58652358Y-156933834D01*
X58726868Y-156820984D01*
X58936363Y-156700032D01*
X59071350Y-156691929D01*
X60376937Y-156776131D02*
X60302428Y-156888981D01*
X60092932Y-157009933D01*
X59957946Y-157018036D01*
X59845096Y-156943525D01*
X59603192Y-156524534D01*
X59595089Y-156389548D01*
X59669598Y-156276698D01*
X59879094Y-156155746D01*
X60014080Y-156147644D01*
X60126931Y-156222153D01*
X60187407Y-156326901D01*
X59724144Y-156734029D01*
X60350459Y-155883603D02*
X60769451Y-155641698D01*
X60295914Y-155426272D02*
X60840200Y-156369002D01*
X60953050Y-156443512D01*
X61088037Y-156435409D01*
X61192784Y-156374933D01*
D13*
X71699143Y-126139743D02*
X72976400Y-126139743D01*
X72337771Y-126778371D02*
X72337771Y-125501114D01*
X74091800Y-128897743D02*
X74011971Y-129057400D01*
X74011971Y-129296886D01*
X74091800Y-129536371D01*
X74251457Y-129696029D01*
X74411114Y-129775857D01*
X74730429Y-129855686D01*
X74969914Y-129855686D01*
X75289229Y-129775857D01*
X75448886Y-129696029D01*
X75608543Y-129536371D01*
X75688371Y-129296886D01*
X75688371Y-129137229D01*
X75608543Y-128897743D01*
X75528714Y-128817914D01*
X74969914Y-128817914D01*
X74969914Y-129137229D01*
X75688371Y-128099457D02*
X74011971Y-128099457D01*
X75688371Y-127141514D01*
X74011971Y-127141514D01*
X75688371Y-126343228D02*
X74011971Y-126343228D01*
X74011971Y-125944085D01*
X74091800Y-125704600D01*
X74251457Y-125544942D01*
X74411114Y-125465114D01*
X74730429Y-125385285D01*
X74969914Y-125385285D01*
X75289229Y-125465114D01*
X75448886Y-125544942D01*
X75608543Y-125704600D01*
X75688371Y-125944085D01*
X75688371Y-126343228D01*
D14*
X50800000Y-160020000D02*
X99060000Y-160020000D01*
X99060000Y-160020000D02*
X99060000Y-111760000D01*
X99060000Y-111760000D02*
X50800000Y-111760000D01*
X50800000Y-111760000D02*
X50800000Y-160020000D01*
D15*
X78740000Y-121285000D02*
X96520000Y-121285000D01*
X96520000Y-127635000D02*
X96520000Y-121285000D01*
X78740000Y-121285000D02*
X78740000Y-127635000D01*
X77470000Y-120015000D02*
X78740000Y-120015000D01*
X97790000Y-128905000D02*
X93091000Y-128905000D01*
X97790000Y-128905000D02*
X97790000Y-120015000D01*
X77470000Y-120015000D02*
X77470000Y-128905000D01*
X96520000Y-127635000D02*
X92202000Y-127635000D01*
X89662000Y-126873000D02*
X85598000Y-126873000D01*
X85598000Y-127635000D02*
X85598000Y-126873000D01*
X85598000Y-127635000D02*
X78740000Y-127635000D01*
X85598000Y-127635000D02*
X85598000Y-127889000D01*
X89662000Y-126873000D02*
X89662000Y-127635000D01*
X89662000Y-127635000D02*
X89662000Y-127889000D01*
X96520000Y-120015000D02*
X96520000Y-119761000D01*
X96520000Y-119761000D02*
X95250000Y-119761000D01*
X95250000Y-120015000D02*
X95250000Y-119761000D01*
X96520000Y-120015000D02*
X97790000Y-120015000D01*
X88265000Y-119761000D02*
X86995000Y-119761000D01*
X88265000Y-119761000D02*
X88265000Y-120015000D01*
X88265000Y-120015000D02*
X95250000Y-120015000D01*
X86995000Y-119761000D02*
X86995000Y-120015000D01*
X80010000Y-119761000D02*
X78740000Y-119761000D01*
X78740000Y-119761000D02*
X78740000Y-120015000D01*
X80010000Y-119761000D02*
X80010000Y-120015000D01*
X80010000Y-120015000D02*
X86995000Y-120015000D01*
X89789000Y-128905000D02*
X89662000Y-128905000D01*
X89662000Y-128905000D02*
X85598000Y-128905000D01*
X90678000Y-127635000D02*
X90678000Y-127889000D01*
X90678000Y-127635000D02*
X89662000Y-127635000D01*
X92202000Y-127635000D02*
X92202000Y-127889000D01*
X92202000Y-127635000D02*
X90678000Y-127635000D01*
X89789000Y-128905000D02*
X90170000Y-128397000D01*
X92710000Y-128397000D02*
X93091000Y-128905000D01*
X92710000Y-128397000D02*
X92202000Y-128397000D01*
D14*
X90678000Y-127889000D02*
X89662000Y-127889000D01*
D15*
X89662000Y-127889000D02*
X89662000Y-128905000D01*
D14*
X92202000Y-127889000D02*
X96774000Y-127889000D01*
X96774000Y-127889000D02*
X96774000Y-121031000D01*
X96774000Y-121031000D02*
X78486000Y-121031000D01*
X78486000Y-121031000D02*
X78486000Y-127889000D01*
X78486000Y-127889000D02*
X85598000Y-127889000D01*
D15*
X85598000Y-127889000D02*
X85598000Y-128905000D01*
X90678000Y-127889000D02*
X90678000Y-128397000D01*
X90678000Y-128397000D02*
X90170000Y-128397000D01*
X92202000Y-127889000D02*
X92202000Y-128397000D01*
X92202000Y-128397000D02*
X90678000Y-128397000D01*
X85598000Y-128905000D02*
X83185000Y-128905000D01*
X83185000Y-128778000D02*
X83185000Y-128905000D01*
X83185000Y-128778000D02*
X81915000Y-128778000D01*
X81915000Y-128905000D02*
X81915000Y-128778000D01*
X81915000Y-128905000D02*
X77470000Y-128905000D01*
X83820000Y-133985000D02*
X96520000Y-133985000D01*
X96520000Y-140335000D02*
X96520000Y-133985000D01*
X83820000Y-133985000D02*
X83820000Y-140335000D01*
X82550000Y-132715000D02*
X83820000Y-132715000D01*
X97790000Y-141605000D02*
X97790000Y-132715000D01*
X82550000Y-132715000D02*
X82550000Y-141605000D01*
X92202000Y-139573000D02*
X92202000Y-140335000D01*
X92202000Y-139573000D02*
X88138000Y-139573000D01*
X88138000Y-140335000D02*
X88138000Y-139573000D01*
X88138000Y-140335000D02*
X83820000Y-140335000D01*
X88138000Y-140335000D02*
X88138000Y-140589000D01*
X96520000Y-132715000D02*
X96520000Y-132461000D01*
X96520000Y-132461000D02*
X95250000Y-132461000D01*
X95250000Y-132715000D02*
X95250000Y-132461000D01*
X96520000Y-132715000D02*
X97790000Y-132715000D01*
X90805000Y-132461000D02*
X89535000Y-132461000D01*
X90805000Y-132461000D02*
X90805000Y-132715000D01*
X90805000Y-132715000D02*
X95250000Y-132715000D01*
X89535000Y-132461000D02*
X89535000Y-132715000D01*
X85090000Y-132461000D02*
X83820000Y-132461000D01*
X83820000Y-132461000D02*
X83820000Y-132715000D01*
X85090000Y-132461000D02*
X85090000Y-132715000D01*
X85090000Y-132715000D02*
X89535000Y-132715000D01*
X97790000Y-141605000D02*
X92202000Y-141605000D01*
X92202000Y-141605000D02*
X88138000Y-141605000D01*
X96520000Y-140335000D02*
X92202000Y-140335000D01*
X92202000Y-140335000D02*
X92202000Y-140589000D01*
X92202000Y-140589000D02*
X92202000Y-141605000D01*
D14*
X92202000Y-140589000D02*
X96774000Y-140589000D01*
X96774000Y-140589000D02*
X96774000Y-133731000D01*
X96774000Y-133731000D02*
X83566000Y-133731000D01*
X83566000Y-133731000D02*
X83566000Y-140589000D01*
X83566000Y-140589000D02*
X88138000Y-140589000D01*
D15*
X88138000Y-140589000D02*
X88138000Y-141605000D01*
X88138000Y-141605000D02*
X87630000Y-141605000D01*
X87630000Y-141478000D02*
X87630000Y-141605000D01*
X87630000Y-141478000D02*
X86360000Y-141478000D01*
X86360000Y-141605000D02*
X86360000Y-141478000D01*
X86360000Y-141605000D02*
X82550000Y-141605000D01*
X53340000Y-146685000D02*
X83820000Y-146685000D01*
X83820000Y-153035000D02*
X83820000Y-146685000D01*
X53340000Y-146685000D02*
X53340000Y-153035000D01*
X52070000Y-145415000D02*
X53340000Y-145415000D01*
X85090000Y-154305000D02*
X80391000Y-154305000D01*
X85090000Y-154305000D02*
X85090000Y-145415000D01*
X52070000Y-145415000D02*
X52070000Y-154305000D01*
X83820000Y-153035000D02*
X79502000Y-153035000D01*
X70612000Y-152273000D02*
X66548000Y-152273000D01*
X66548000Y-153035000D02*
X66548000Y-152273000D01*
X66548000Y-153035000D02*
X61722000Y-153035000D01*
X70612000Y-152273000D02*
X70612000Y-153035000D01*
X70612000Y-153035000D02*
X70612000Y-153289000D01*
X83820000Y-145415000D02*
X83820000Y-145161000D01*
X83820000Y-145161000D02*
X82550000Y-145161000D01*
X82550000Y-145415000D02*
X82550000Y-145161000D01*
X83820000Y-145415000D02*
X85090000Y-145415000D01*
X69215000Y-145161000D02*
X67945000Y-145161000D01*
X69215000Y-145161000D02*
X69215000Y-145415000D01*
X69215000Y-145415000D02*
X82550000Y-145415000D01*
X67945000Y-145161000D02*
X67945000Y-145415000D01*
X54610000Y-145161000D02*
X53340000Y-145161000D01*
X53340000Y-145161000D02*
X53340000Y-145415000D01*
X54610000Y-145161000D02*
X54610000Y-145415000D01*
X54610000Y-145415000D02*
X67945000Y-145415000D01*
X77089000Y-154305000D02*
X70612000Y-154305000D01*
X70612000Y-154305000D02*
X66548000Y-154305000D01*
X77978000Y-153035000D02*
X77978000Y-153289000D01*
X77978000Y-153035000D02*
X70612000Y-153035000D01*
X79502000Y-153035000D02*
X79502000Y-153289000D01*
X79502000Y-153035000D02*
X77978000Y-153035000D01*
X77089000Y-154305000D02*
X77470000Y-153797000D01*
X80010000Y-153797000D02*
X80391000Y-154305000D01*
X80010000Y-153797000D02*
X79502000Y-153797000D01*
D14*
X77978000Y-153289000D02*
X70612000Y-153289000D01*
D15*
X70612000Y-153289000D02*
X70612000Y-154305000D01*
D14*
X79502000Y-153289000D02*
X84074000Y-153289000D01*
X84074000Y-153289000D02*
X84074000Y-146431000D01*
X84074000Y-146431000D02*
X53086000Y-146431000D01*
X53086000Y-146431000D02*
X53086000Y-153289000D01*
X53086000Y-153289000D02*
X60198000Y-153289000D01*
D15*
X66548000Y-153035000D02*
X66548000Y-153289000D01*
X66548000Y-153289000D02*
X66548000Y-154305000D01*
X77978000Y-153289000D02*
X77978000Y-153797000D01*
X77978000Y-153797000D02*
X77470000Y-153797000D01*
X79502000Y-153289000D02*
X79502000Y-153797000D01*
X79502000Y-153797000D02*
X77978000Y-153797000D01*
X52070000Y-154305000D02*
X56388000Y-154305000D01*
X56388000Y-154178000D02*
X56388000Y-154305000D01*
X56388000Y-154178000D02*
X57912000Y-154178000D01*
X57912000Y-154305000D02*
X57912000Y-154178000D01*
X57912000Y-154305000D02*
X59309000Y-154305000D01*
X60198000Y-153289000D02*
X60198000Y-153797000D01*
X61722000Y-153289000D02*
X61722000Y-153797000D01*
D14*
X61722000Y-153289000D02*
X66548000Y-153289000D01*
D15*
X60198000Y-153035000D02*
X60198000Y-153289000D01*
X60198000Y-153035000D02*
X53340000Y-153035000D01*
X61722000Y-153035000D02*
X61722000Y-153289000D01*
X61722000Y-153035000D02*
X60198000Y-153035000D01*
X61722000Y-153797000D02*
X60198000Y-153797000D01*
X60198000Y-153797000D02*
X59690000Y-153797000D01*
X59309000Y-154305000D02*
X59690000Y-153797000D01*
X62230000Y-153797000D02*
X62611000Y-154305000D01*
X62611000Y-154305000D02*
X66548000Y-154305000D01*
X62230000Y-153797000D02*
X61722000Y-153797000D01*
X80010000Y-137795000D02*
X80010000Y-137160000D01*
X79375000Y-136144000D02*
X80645000Y-136144000D01*
X80645000Y-136144000D02*
X80010000Y-137160000D01*
X80010000Y-137160000D02*
X80010000Y-135636000D01*
X80010000Y-137160000D02*
X79375000Y-136144000D01*
X79375000Y-137160000D02*
X80010000Y-137160000D01*
X80010000Y-137160000D02*
X80645000Y-137160000D01*
X79248000Y-134874000D02*
G75*
G03X78994000Y-135128000I0J-254000D01*
G01*
X79248000Y-134874000D02*
X80772000Y-134874000D01*
X80772000Y-134874000D02*
G75*
G02X81026000Y-135128000I0J-254000D01*
G01*
X78994000Y-139192000D02*
G75*
G03X79248000Y-139446000I254000J0D01*
G01*
X81026000Y-139192000D02*
G75*
G02X80772000Y-139446000I-254000J0D01*
G01*
X81026000Y-139192000D02*
X81026000Y-135128000D01*
X79248000Y-139446000D02*
X80772000Y-139446000D01*
X78994000Y-139192000D02*
X78994000Y-135128000D01*
D10*
G36*
X78994000Y-139065000D02*
X78994000Y-138557000D01*
X81026000Y-138557000D01*
X81026000Y-139065000D01*
X78994000Y-139065000D01*
G37*
G36*
X79756000Y-134874000D02*
X79756000Y-134239000D01*
X80264000Y-134239000D01*
X80264000Y-134874000D01*
X79756000Y-134874000D01*
G37*
G36*
X79756000Y-140081000D02*
X79756000Y-139446000D01*
X80264000Y-139446000D01*
X80264000Y-140081000D01*
X79756000Y-140081000D01*
G37*
D15*
X71120000Y-121285000D02*
X73660000Y-121285000D01*
X73660000Y-121285000D02*
X73660000Y-118745000D01*
X73660000Y-118745000D02*
X71120000Y-118745000D01*
X71120000Y-118745000D02*
X71120000Y-121285000D01*
D16*
X72390000Y-112395000D02*
X72390000Y-118110000D01*
D15*
X73660000Y-121285000D02*
X76200000Y-121285000D01*
X76200000Y-121285000D02*
X76200000Y-118745000D01*
X76200000Y-118745000D02*
X73660000Y-118745000D01*
D16*
X74930000Y-112395000D02*
X74930000Y-118110000D01*
D10*
G36*
X72009000Y-118237000D02*
X72771000Y-118237000D01*
X72771000Y-118745000D01*
X72009000Y-118745000D01*
X72009000Y-118237000D01*
G37*
G36*
X74549000Y-118237000D02*
X75311000Y-118237000D01*
X75311000Y-118745000D01*
X74549000Y-118745000D01*
X74549000Y-118237000D01*
G37*
G36*
X72009000Y-121285000D02*
X72771000Y-121285000D01*
X72771000Y-122301000D01*
X72009000Y-122301000D01*
X72009000Y-121285000D01*
G37*
G36*
X74549000Y-121285000D02*
X75311000Y-121285000D01*
X75311000Y-122301000D01*
X74549000Y-122301000D01*
X74549000Y-121285000D01*
G37*
D17*
X65250000Y-127760000D02*
X58950000Y-127760000D01*
X49050000Y-127760000D02*
X55350000Y-127760000D01*
X49050000Y-127760000D02*
X49050000Y-121160000D01*
X65250000Y-121160000D02*
X65250000Y-127760000D01*
X49050000Y-121160000D02*
X65250000Y-121160000D01*
D18*
X52300000Y-126360000D02*
X62000000Y-126360000D01*
X62000000Y-126360000D02*
X62000000Y-124860000D01*
X62000000Y-124060000D02*
X62000000Y-122560000D01*
X62000000Y-122560000D02*
X52300000Y-122560000D01*
X52300000Y-122560000D02*
X52300000Y-124060000D01*
X52300000Y-124860000D02*
X52300000Y-126360000D01*
X52300000Y-124860000D02*
G75*
G03X52300000Y-124060000I-190000J400000D01*
G01*
X62000000Y-124060000D02*
G75*
G03X62000000Y-124860000I190000J-400000D01*
G01*
D17*
X49030000Y-140460000D02*
X60330000Y-140460000D01*
X49030000Y-133860000D02*
X49030000Y-140460000D01*
X75430000Y-140460000D02*
X64130000Y-140460000D01*
X75430000Y-133860000D02*
X75430000Y-140460000D01*
X49030000Y-133860000D02*
X75430000Y-133860000D01*
D18*
X52380000Y-139060000D02*
X72080000Y-139060000D01*
X72080000Y-139060000D02*
X72080000Y-137560000D01*
X72080000Y-136760000D02*
X72080000Y-135260000D01*
X72080000Y-135260000D02*
X52380000Y-135260000D01*
X52380000Y-135260000D02*
X52380000Y-136760000D01*
X52380000Y-137560000D02*
X52380000Y-139060000D01*
X52380000Y-137560000D02*
G75*
G03X52380000Y-136760000I-190000J400000D01*
G01*
X72080000Y-136760000D02*
G75*
G03X72080000Y-137560000I190000J-400000D01*
G01*
D17*
X62681000Y-118370000D02*
X57481000Y-118370000D01*
X70281000Y-118370000D02*
X65081000Y-118370000D01*
X70281000Y-112770000D02*
X70281000Y-118370000D01*
X57481000Y-112770000D02*
X70281000Y-112770000D01*
X57481000Y-118370000D02*
X57481000Y-112770000D01*
D14*
X60706000Y-116840000D02*
X60706000Y-116205000D01*
X60706000Y-116205000D02*
X60706000Y-114300000D01*
X60706000Y-114300000D02*
X67056000Y-114300000D01*
X67056000Y-114300000D02*
X67056000Y-116840000D01*
X67056000Y-116840000D02*
X61341000Y-116840000D01*
X61341000Y-116840000D02*
X60706000Y-116840000D01*
X61341000Y-116840000D02*
X61341000Y-116967000D01*
X61341000Y-116967000D02*
X60579000Y-116967000D01*
X60579000Y-116967000D02*
X60579000Y-116205000D01*
X60579000Y-116205000D02*
X60706000Y-116205000D01*
X60579000Y-116205000D02*
X60452000Y-116205000D01*
X60452000Y-116205000D02*
X60452000Y-117094000D01*
X60452000Y-117094000D02*
X61341000Y-117094000D01*
X61341000Y-117094000D02*
X61341000Y-116967000D01*
D17*
X82112000Y-118370000D02*
X76912000Y-118370000D01*
X89712000Y-118370000D02*
X84512000Y-118370000D01*
X89712000Y-112770000D02*
X89712000Y-118370000D01*
X76912000Y-112770000D02*
X89712000Y-112770000D01*
X76912000Y-118370000D02*
X76912000Y-112770000D01*
D14*
X80137000Y-116840000D02*
X80137000Y-116205000D01*
X80137000Y-116205000D02*
X80137000Y-114300000D01*
X80137000Y-114300000D02*
X86487000Y-114300000D01*
X86487000Y-114300000D02*
X86487000Y-116840000D01*
X86487000Y-116840000D02*
X80772000Y-116840000D01*
X80772000Y-116840000D02*
X80137000Y-116840000D01*
X80772000Y-116840000D02*
X80772000Y-116967000D01*
X80772000Y-116967000D02*
X80010000Y-116967000D01*
X80010000Y-116967000D02*
X80010000Y-116205000D01*
X80010000Y-116205000D02*
X80137000Y-116205000D01*
X80010000Y-116205000D02*
X79883000Y-116205000D01*
X79883000Y-116205000D02*
X79883000Y-117094000D01*
X79883000Y-117094000D02*
X80772000Y-117094000D01*
X80772000Y-117094000D02*
X80772000Y-116967000D01*
D19*
X86705953Y-119231667D02*
X87310715Y-119231667D01*
X86585000Y-119594524D02*
X87008334Y-118324524D01*
X87431667Y-119594524D01*
X87673571Y-118324524D02*
X88096905Y-119594524D01*
X88520238Y-118324524D01*
X89669285Y-119594524D02*
X89245952Y-118989762D01*
X88943571Y-119594524D02*
X88943571Y-118324524D01*
X89427380Y-118324524D01*
X89548333Y-118385000D01*
X89608809Y-118445476D01*
X89669285Y-118566429D01*
X89669285Y-118747857D01*
X89608809Y-118868810D01*
X89548333Y-118929286D01*
X89427380Y-118989762D01*
X88943571Y-118989762D01*
X90878809Y-119594524D02*
X90153095Y-119594524D01*
X90515952Y-119594524D02*
X90515952Y-118324524D01*
X90395000Y-118505952D01*
X90274047Y-118626905D01*
X90153095Y-118687381D01*
X91665000Y-118324524D02*
X91785952Y-118324524D01*
X91906904Y-118385000D01*
X91967381Y-118445476D01*
X92027857Y-118566429D01*
X92088333Y-118808333D01*
X92088333Y-119110714D01*
X92027857Y-119352619D01*
X91967381Y-119473571D01*
X91906904Y-119534048D01*
X91785952Y-119594524D01*
X91665000Y-119594524D01*
X91544047Y-119534048D01*
X91483571Y-119473571D01*
X91423095Y-119352619D01*
X91362619Y-119110714D01*
X91362619Y-118808333D01*
X91423095Y-118566429D01*
X91483571Y-118445476D01*
X91544047Y-118385000D01*
X91665000Y-118324524D01*
X92632619Y-119110714D02*
X93600238Y-119110714D01*
X94144524Y-118445476D02*
X94205000Y-118385000D01*
X94325952Y-118324524D01*
X94628333Y-118324524D01*
X94749286Y-118385000D01*
X94809762Y-118445476D01*
X94870238Y-118566429D01*
X94870238Y-118687381D01*
X94809762Y-118868810D01*
X94084048Y-119594524D01*
X94870238Y-119594524D01*
X95414524Y-119473571D02*
X95475000Y-119534048D01*
X95414524Y-119594524D01*
X95354048Y-119534048D01*
X95414524Y-119473571D01*
X95414524Y-119594524D01*
X96624048Y-118324524D02*
X96019286Y-118324524D01*
X95958810Y-118929286D01*
X96019286Y-118868810D01*
X96140238Y-118808333D01*
X96442619Y-118808333D01*
X96563572Y-118868810D01*
X96624048Y-118929286D01*
X96684524Y-119050238D01*
X96684524Y-119352619D01*
X96624048Y-119473571D01*
X96563572Y-119534048D01*
X96442619Y-119594524D01*
X96140238Y-119594524D01*
X96019286Y-119534048D01*
X95958810Y-119473571D01*
X97773096Y-118747857D02*
X97773096Y-119594524D01*
X97470715Y-118264048D02*
X97168334Y-119171190D01*
X97954524Y-119171190D01*
D20*
X87581619Y-128463524D02*
X86855905Y-128463524D01*
X87218762Y-128463524D02*
X87218762Y-127193524D01*
X87097810Y-127374952D01*
X86976857Y-127495905D01*
X86855905Y-127556381D01*
X88367810Y-127193524D02*
X88488762Y-127193524D01*
X88609714Y-127254000D01*
X88670191Y-127314476D01*
X88730667Y-127435429D01*
X88791143Y-127677333D01*
X88791143Y-127979714D01*
X88730667Y-128221619D01*
X88670191Y-128342571D01*
X88609714Y-128403048D01*
X88488762Y-128463524D01*
X88367810Y-128463524D01*
X88246857Y-128403048D01*
X88186381Y-128342571D01*
X88125905Y-128221619D01*
X88065429Y-127979714D01*
X88065429Y-127677333D01*
X88125905Y-127435429D01*
X88186381Y-127314476D01*
X88246857Y-127254000D01*
X88367810Y-127193524D01*
X80977619Y-126304524D02*
X80251905Y-126304524D01*
X80614762Y-126304524D02*
X80614762Y-125034524D01*
X80493810Y-125215952D01*
X80372857Y-125336905D01*
X80251905Y-125397381D01*
X80251905Y-122615476D02*
X80312381Y-122555000D01*
X80433333Y-122494524D01*
X80735714Y-122494524D01*
X80856667Y-122555000D01*
X80917143Y-122615476D01*
X80977619Y-122736429D01*
X80977619Y-122857381D01*
X80917143Y-123038810D01*
X80191429Y-123764524D01*
X80977619Y-123764524D01*
D19*
X87310715Y-131731667D02*
X87915477Y-131731667D01*
X87189762Y-132094524D02*
X87613096Y-130824524D01*
X88036429Y-132094524D01*
X88278333Y-130824524D02*
X88701667Y-132094524D01*
X89125000Y-130824524D01*
X90274047Y-132094524D02*
X89850714Y-131489762D01*
X89548333Y-132094524D02*
X89548333Y-130824524D01*
X90032142Y-130824524D01*
X90153095Y-130885000D01*
X90213571Y-130945476D01*
X90274047Y-131066429D01*
X90274047Y-131247857D01*
X90213571Y-131368810D01*
X90153095Y-131429286D01*
X90032142Y-131489762D01*
X89548333Y-131489762D01*
X91362619Y-130824524D02*
X91120714Y-130824524D01*
X90999762Y-130885000D01*
X90939285Y-130945476D01*
X90818333Y-131126905D01*
X90757857Y-131368810D01*
X90757857Y-131852619D01*
X90818333Y-131973571D01*
X90878809Y-132034048D01*
X90999762Y-132094524D01*
X91241666Y-132094524D01*
X91362619Y-132034048D01*
X91423095Y-131973571D01*
X91483571Y-131852619D01*
X91483571Y-131550238D01*
X91423095Y-131429286D01*
X91362619Y-131368810D01*
X91241666Y-131308333D01*
X90999762Y-131308333D01*
X90878809Y-131368810D01*
X90818333Y-131429286D01*
X90757857Y-131550238D01*
X92027857Y-131610714D02*
X92995476Y-131610714D01*
X93539762Y-130945476D02*
X93600238Y-130885000D01*
X93721190Y-130824524D01*
X94023571Y-130824524D01*
X94144524Y-130885000D01*
X94205000Y-130945476D01*
X94265476Y-131066429D01*
X94265476Y-131187381D01*
X94205000Y-131368810D01*
X93479286Y-132094524D01*
X94265476Y-132094524D01*
X94809762Y-131973571D02*
X94870238Y-132034048D01*
X94809762Y-132094524D01*
X94749286Y-132034048D01*
X94809762Y-131973571D01*
X94809762Y-132094524D01*
X96019286Y-130824524D02*
X95414524Y-130824524D01*
X95354048Y-131429286D01*
X95414524Y-131368810D01*
X95535476Y-131308333D01*
X95837857Y-131308333D01*
X95958810Y-131368810D01*
X96019286Y-131429286D01*
X96079762Y-131550238D01*
X96079762Y-131852619D01*
X96019286Y-131973571D01*
X95958810Y-132034048D01*
X95837857Y-132094524D01*
X95535476Y-132094524D01*
X95414524Y-132034048D01*
X95354048Y-131973571D01*
X97168334Y-131247857D02*
X97168334Y-132094524D01*
X96865953Y-130764048D02*
X96563572Y-131671190D01*
X97349762Y-131671190D01*
D20*
X86057619Y-139004524D02*
X85331905Y-139004524D01*
X85694762Y-139004524D02*
X85694762Y-137734524D01*
X85573810Y-137915952D01*
X85452857Y-138036905D01*
X85331905Y-138097381D01*
X85331905Y-135315476D02*
X85392381Y-135255000D01*
X85513333Y-135194524D01*
X85815714Y-135194524D01*
X85936667Y-135255000D01*
X85997143Y-135315476D01*
X86057619Y-135436429D01*
X86057619Y-135557381D01*
X85997143Y-135738810D01*
X85271429Y-136464524D01*
X86057619Y-136464524D01*
X90635667Y-139893524D02*
X90393762Y-139893524D01*
X90272810Y-139954000D01*
X90212333Y-140014476D01*
X90091381Y-140195905D01*
X90030905Y-140437810D01*
X90030905Y-140921619D01*
X90091381Y-141042571D01*
X90151857Y-141103048D01*
X90272810Y-141163524D01*
X90514714Y-141163524D01*
X90635667Y-141103048D01*
X90696143Y-141042571D01*
X90756619Y-140921619D01*
X90756619Y-140619238D01*
X90696143Y-140498286D01*
X90635667Y-140437810D01*
X90514714Y-140377333D01*
X90272810Y-140377333D01*
X90151857Y-140437810D01*
X90091381Y-140498286D01*
X90030905Y-140619238D01*
D19*
X52311902Y-144659061D02*
X52493330Y-144719537D01*
X52795711Y-144719537D01*
X52916664Y-144659061D01*
X52977140Y-144598584D01*
X53037616Y-144477632D01*
X53037616Y-144356680D01*
X52977140Y-144235727D01*
X52916664Y-144175251D01*
X52795711Y-144114775D01*
X52553807Y-144054299D01*
X52432854Y-143993823D01*
X52372378Y-143933346D01*
X52311902Y-143812394D01*
X52311902Y-143691442D01*
X52372378Y-143570489D01*
X52432854Y-143510013D01*
X52553807Y-143449537D01*
X52856187Y-143449537D01*
X53037616Y-143510013D01*
X53521426Y-144356680D02*
X54126188Y-144356680D01*
X53400473Y-144719537D02*
X53823807Y-143449537D01*
X54247140Y-144719537D01*
X54670473Y-144719537D02*
X54670473Y-143449537D01*
X55093806Y-144356680D01*
X55517140Y-143449537D01*
X55517140Y-144719537D01*
X56061426Y-143570489D02*
X56121902Y-143510013D01*
X56242854Y-143449537D01*
X56545235Y-143449537D01*
X56666188Y-143510013D01*
X56726664Y-143570489D01*
X56787140Y-143691442D01*
X56787140Y-143812394D01*
X56726664Y-143993823D01*
X56000950Y-144719537D01*
X56787140Y-144719537D01*
X57573331Y-143449537D02*
X57694283Y-143449537D01*
X57815235Y-143510013D01*
X57875712Y-143570489D01*
X57936188Y-143691442D01*
X57996664Y-143933346D01*
X57996664Y-144235727D01*
X57936188Y-144477632D01*
X57875712Y-144598584D01*
X57815235Y-144659061D01*
X57694283Y-144719537D01*
X57573331Y-144719537D01*
X57452378Y-144659061D01*
X57391902Y-144598584D01*
X57331426Y-144477632D01*
X57270950Y-144235727D01*
X57270950Y-143933346D01*
X57331426Y-143691442D01*
X57391902Y-143570489D01*
X57452378Y-143510013D01*
X57573331Y-143449537D01*
X58540950Y-144235727D02*
X59508569Y-144235727D01*
X60052855Y-143570489D02*
X60113331Y-143510013D01*
X60234283Y-143449537D01*
X60536664Y-143449537D01*
X60657617Y-143510013D01*
X60718093Y-143570489D01*
X60778569Y-143691442D01*
X60778569Y-143812394D01*
X60718093Y-143993823D01*
X59992379Y-144719537D01*
X60778569Y-144719537D01*
X61322855Y-144598584D02*
X61383331Y-144659061D01*
X61322855Y-144719537D01*
X61262379Y-144659061D01*
X61322855Y-144598584D01*
X61322855Y-144719537D01*
X62532379Y-143449537D02*
X61927617Y-143449537D01*
X61867141Y-144054299D01*
X61927617Y-143993823D01*
X62048569Y-143933346D01*
X62350950Y-143933346D01*
X62471903Y-143993823D01*
X62532379Y-144054299D01*
X62592855Y-144175251D01*
X62592855Y-144477632D01*
X62532379Y-144598584D01*
X62471903Y-144659061D01*
X62350950Y-144719537D01*
X62048569Y-144719537D01*
X61927617Y-144659061D01*
X61867141Y-144598584D01*
X63681427Y-143872870D02*
X63681427Y-144719537D01*
X63379046Y-143389061D02*
X63076665Y-144296203D01*
X63862855Y-144296203D01*
D20*
X55577617Y-151704524D02*
X54851903Y-151704524D01*
X55214760Y-151704524D02*
X55214760Y-150434524D01*
X55093808Y-150615952D01*
X54972855Y-150736905D01*
X54851903Y-150797381D01*
X54851903Y-148015476D02*
X54912379Y-147955000D01*
X55033331Y-147894524D01*
X55335712Y-147894524D01*
X55456665Y-147955000D01*
X55517141Y-148015476D01*
X55577617Y-148136429D01*
X55577617Y-148257381D01*
X55517141Y-148438810D01*
X54791427Y-149164524D01*
X55577617Y-149164524D01*
X67805905Y-152714476D02*
X67866381Y-152654000D01*
X67987333Y-152593524D01*
X68289714Y-152593524D01*
X68410667Y-152654000D01*
X68471143Y-152714476D01*
X68531619Y-152835429D01*
X68531619Y-152956381D01*
X68471143Y-153137810D01*
X67745429Y-153863524D01*
X68531619Y-153863524D01*
X69317810Y-152593524D02*
X69438762Y-152593524D01*
X69559714Y-152654000D01*
X69620191Y-152714476D01*
X69680667Y-152835429D01*
X69741143Y-153077333D01*
X69741143Y-153379714D01*
X69680667Y-153621619D01*
X69620191Y-153742571D01*
X69559714Y-153803048D01*
X69438762Y-153863524D01*
X69317810Y-153863524D01*
X69196857Y-153803048D01*
X69136381Y-153742571D01*
X69075905Y-153621619D01*
X69015429Y-153379714D01*
X69015429Y-153077333D01*
X69075905Y-152835429D01*
X69136381Y-152714476D01*
X69196857Y-152654000D01*
X69317810Y-152593524D01*
X78679534Y-137462381D02*
X77409534Y-137462381D01*
X77409534Y-137160000D01*
X77470010Y-136978572D01*
X77590962Y-136857619D01*
X77711915Y-136797143D01*
X77953820Y-136736667D01*
X78135248Y-136736667D01*
X78377153Y-136797143D01*
X78498105Y-136857619D01*
X78619058Y-136978572D01*
X78679534Y-137160000D01*
X78679534Y-137462381D01*
X78679534Y-135527143D02*
X78679534Y-136252857D01*
X78679534Y-135890000D02*
X77409534Y-135890000D01*
X77590962Y-136010952D01*
X77711915Y-136131905D01*
X77772391Y-136252857D01*
X82474524Y-139941429D02*
X82474524Y-140667143D01*
X82474524Y-140304286D02*
X81204524Y-140304286D01*
X81385952Y-140425238D01*
X81506905Y-140546191D01*
X81567381Y-140667143D01*
X82474524Y-139397143D02*
X81204524Y-139397143D01*
X82474524Y-138671429D01*
X81204524Y-138671429D01*
X81627857Y-137522381D02*
X82474524Y-137522381D01*
X81144048Y-137824762D02*
X82051190Y-138127143D01*
X82051190Y-137340953D01*
X82474524Y-136191905D02*
X82474524Y-136917619D01*
X82474524Y-136554762D02*
X81204524Y-136554762D01*
X81385952Y-136675714D01*
X81506905Y-136796667D01*
X81567381Y-136917619D01*
X81627857Y-135103333D02*
X82474524Y-135103333D01*
X81144048Y-135405714D02*
X82051190Y-135708095D01*
X82051190Y-134921905D01*
X81748810Y-134256666D02*
X81688333Y-134377619D01*
X81627857Y-134438095D01*
X81506905Y-134498571D01*
X81446429Y-134498571D01*
X81325476Y-134438095D01*
X81265000Y-134377619D01*
X81204524Y-134256666D01*
X81204524Y-134014762D01*
X81265000Y-133893809D01*
X81325476Y-133833333D01*
X81446429Y-133772857D01*
X81506905Y-133772857D01*
X81627857Y-133833333D01*
X81688333Y-133893809D01*
X81748810Y-134014762D01*
X81748810Y-134256666D01*
X81809286Y-134377619D01*
X81869762Y-134438095D01*
X81990714Y-134498571D01*
X82232619Y-134498571D01*
X82353571Y-134438095D01*
X82414048Y-134377619D01*
X82474524Y-134256666D01*
X82474524Y-134014762D01*
X82414048Y-133893809D01*
X82353571Y-133833333D01*
X82232619Y-133772857D01*
X81990714Y-133772857D01*
X81869762Y-133833333D01*
X81809286Y-133893809D01*
X81748810Y-134014762D01*
D21*
X52732229Y-126195486D02*
X52558057Y-126195486D01*
X52645143Y-126195486D02*
X52645143Y-125890686D01*
X52616114Y-125934229D01*
X52587086Y-125963257D01*
X52558057Y-125977771D01*
X52812229Y-138895486D02*
X52638057Y-138895486D01*
X52725143Y-138895486D02*
X52725143Y-138590686D01*
X52696114Y-138634229D01*
X52667086Y-138663257D01*
X52638057Y-138677771D01*
%LPC*%
D22*
X82550000Y-125730000D03*
X82550000Y-123190000D03*
X85090000Y-125730000D03*
X85090000Y-123190000D03*
X87630000Y-125730000D03*
X87630000Y-123190000D03*
X90170000Y-125730000D03*
X90170000Y-123190000D03*
X92710000Y-125730000D03*
X92710000Y-123190000D03*
X87630000Y-138430000D03*
X87630000Y-135890000D03*
X90170000Y-138430000D03*
X90170000Y-135890000D03*
X92710000Y-138430000D03*
X92710000Y-135890000D03*
X57150000Y-151130000D03*
X57150000Y-148590000D03*
X59690000Y-151130000D03*
X59690000Y-148590000D03*
X62230000Y-151130000D03*
X62230000Y-148590000D03*
X64770000Y-151130000D03*
X64770000Y-148590000D03*
X67310000Y-151130000D03*
X67310000Y-148590000D03*
X69850000Y-151130000D03*
X69850000Y-148590000D03*
X72390000Y-151130000D03*
X72390000Y-148590000D03*
X74930000Y-151130000D03*
X74930000Y-148590000D03*
X77470000Y-151130000D03*
X77470000Y-148590000D03*
X80010000Y-151130000D03*
X80010000Y-148590000D03*
D23*
X80010000Y-140970000D03*
X80010000Y-133350000D03*
D24*
X72390000Y-123190000D03*
X74930000Y-123190000D03*
D25*
X53800000Y-115020000D03*
X95800000Y-115020000D03*
X53800000Y-157020000D03*
X95800000Y-157020000D03*
D26*
X53150000Y-125460000D03*
X53150000Y-123460000D03*
X55150000Y-125460000D03*
X55150000Y-123460000D03*
X57150000Y-125460000D03*
X57150000Y-123460000D03*
X59150000Y-125460000D03*
X59150000Y-123460000D03*
X61150000Y-125460000D03*
X61150000Y-123460000D03*
X53230000Y-138160000D03*
X53230000Y-136160000D03*
X55230000Y-138160000D03*
X55230000Y-136160000D03*
X57230000Y-138160000D03*
X57230000Y-136160000D03*
X59230000Y-138160000D03*
X59230000Y-136160000D03*
X61230000Y-138160000D03*
X61230000Y-136160000D03*
X63230000Y-138160000D03*
X63230000Y-136160000D03*
X65230000Y-138160000D03*
X65230000Y-136160000D03*
X67230000Y-138160000D03*
X67230000Y-136160000D03*
X69230000Y-138160000D03*
X69230000Y-136160000D03*
X71230000Y-138160000D03*
X71230000Y-136160000D03*
D27*
X61341000Y-116205000D03*
X61341000Y-114935000D03*
X62611000Y-116205000D03*
X62611000Y-114935000D03*
X63881000Y-116205000D03*
X63881000Y-114935000D03*
X65151000Y-116205000D03*
X65151000Y-114935000D03*
X66421000Y-116205000D03*
X66421000Y-114935000D03*
X80772000Y-116205000D03*
X80772000Y-114935000D03*
X82042000Y-116205000D03*
X82042000Y-114935000D03*
X83312000Y-116205000D03*
X83312000Y-114935000D03*
X84582000Y-116205000D03*
X84582000Y-114935000D03*
X85852000Y-116205000D03*
X85852000Y-114935000D03*
M02*
