M48
METRIC,TZ
T1C0.305
T2C0.600
T3C0.813
T4C0.900
T5C0.914
T6C1.016
T7C2.700
%
G90
G05
T1
X58.728Y-117.948
X58.928Y-119.634
X61.267Y-112.712
X64.489Y-125.448
X67.322Y-116.924
X67.806Y-123.233
X79.21Y-119.465
X80.772Y-121.158
T2
X61.341Y-114.935
X61.341Y-116.205
X62.611Y-114.935
X62.611Y-116.205
X63.881Y-114.935
X63.881Y-116.205
X65.151Y-114.935
X65.151Y-116.205
X66.421Y-114.935
X66.421Y-116.205
X80.772Y-114.935
X80.772Y-116.205
X82.042Y-114.935
X82.042Y-116.205
X83.312Y-114.935
X83.312Y-116.205
X84.582Y-114.935
X84.582Y-116.205
X85.852Y-114.935
X85.852Y-116.205
T3
X80.01Y-133.35
X80.01Y-140.97
T4
X53.15Y-123.46
X53.15Y-125.46
X53.23Y-136.16
X53.23Y-138.16
X55.15Y-123.46
X55.15Y-125.46
X55.23Y-136.16
X55.23Y-138.16
X57.15Y-123.46
X57.15Y-125.46
X57.23Y-136.16
X57.23Y-138.16
X59.15Y-123.46
X59.15Y-125.46
X59.23Y-136.16
X59.23Y-138.16
X61.15Y-123.46
X61.15Y-125.46
X61.23Y-136.16
X61.23Y-138.16
X63.23Y-136.16
X63.23Y-138.16
X65.23Y-136.16
X65.23Y-138.16
X67.23Y-136.16
X67.23Y-138.16
X69.23Y-136.16
X69.23Y-138.16
X71.23Y-136.16
X71.23Y-138.16
T5
X57.15Y-148.59
X57.15Y-151.13
X59.69Y-148.59
X59.69Y-151.13
X62.23Y-148.59
X62.23Y-151.13
X64.77Y-148.59
X64.77Y-151.13
X67.31Y-148.59
X67.31Y-151.13
X69.85Y-148.59
X69.85Y-151.13
X72.39Y-148.59
X72.39Y-151.13
X74.93Y-148.59
X74.93Y-151.13
X77.47Y-148.59
X77.47Y-151.13
X80.01Y-148.59
X80.01Y-151.13
X82.55Y-123.19
X82.55Y-125.73
X85.09Y-123.19
X85.09Y-125.73
X87.63Y-123.19
X87.63Y-125.73
X87.63Y-135.89
X87.63Y-138.43
X90.17Y-123.19
X90.17Y-125.73
X90.17Y-135.89
X90.17Y-138.43
X92.71Y-123.19
X92.71Y-125.73
X92.71Y-135.89
X92.71Y-138.43
T6
X72.39Y-123.19
X74.93Y-123.19
T7
X53.8Y-115.02
X53.8Y-157.02
X95.8Y-115.02
X95.8Y-157.02
T0
M30
