G04 #@! TF.FileFunction,Soldermask,Top*
%FSLAX46Y46*%
G04 Gerber Fmt 4.6, Leading zero omitted, Abs format (unit mm)*
G04 Created by KiCad (PCBNEW 4.0.2-stable) date 30/04/2017 18:34:37*
%MOMM*%
G01*
G04 APERTURE LIST*
%ADD10C,0.100000*%
%ADD11C,0.150000*%
%ADD12C,1.822400*%
%ADD13O,1.720800X3.041600*%
%ADD14O,1.924000X3.448000*%
%ADD15C,3.100000*%
%ADD16C,1.670000*%
%ADD17C,1.416000*%
G04 APERTURE END LIST*
D10*
D11*
X50800000Y-160020000D02*
X99060000Y-160020000D01*
X99060000Y-160020000D02*
X99060000Y-111760000D01*
X99060000Y-111760000D02*
X50800000Y-111760000D01*
X50800000Y-111760000D02*
X50800000Y-160020000D01*
D12*
X82550000Y-125730000D03*
X82550000Y-123190000D03*
X85090000Y-125730000D03*
X85090000Y-123190000D03*
X87630000Y-125730000D03*
X87630000Y-123190000D03*
X90170000Y-125730000D03*
X90170000Y-123190000D03*
X92710000Y-125730000D03*
X92710000Y-123190000D03*
X87630000Y-138430000D03*
X87630000Y-135890000D03*
X90170000Y-138430000D03*
X90170000Y-135890000D03*
X92710000Y-138430000D03*
X92710000Y-135890000D03*
X57150000Y-151130000D03*
X57150000Y-148590000D03*
X59690000Y-151130000D03*
X59690000Y-148590000D03*
X62230000Y-151130000D03*
X62230000Y-148590000D03*
X64770000Y-151130000D03*
X64770000Y-148590000D03*
X67310000Y-151130000D03*
X67310000Y-148590000D03*
X69850000Y-151130000D03*
X69850000Y-148590000D03*
X72390000Y-151130000D03*
X72390000Y-148590000D03*
X74930000Y-151130000D03*
X74930000Y-148590000D03*
X77470000Y-151130000D03*
X77470000Y-148590000D03*
X80010000Y-151130000D03*
X80010000Y-148590000D03*
D13*
X80010000Y-140970000D03*
X80010000Y-133350000D03*
D14*
X72390000Y-123190000D03*
X74930000Y-123190000D03*
D15*
X53800000Y-115020000D03*
X95800000Y-115020000D03*
X53800000Y-157020000D03*
X95800000Y-157020000D03*
D16*
X53150000Y-125460000D03*
X53150000Y-123460000D03*
X55150000Y-125460000D03*
X55150000Y-123460000D03*
X57150000Y-125460000D03*
X57150000Y-123460000D03*
X59150000Y-125460000D03*
X59150000Y-123460000D03*
X61150000Y-125460000D03*
X61150000Y-123460000D03*
X53230000Y-138160000D03*
X53230000Y-136160000D03*
X55230000Y-138160000D03*
X55230000Y-136160000D03*
X57230000Y-138160000D03*
X57230000Y-136160000D03*
X59230000Y-138160000D03*
X59230000Y-136160000D03*
X61230000Y-138160000D03*
X61230000Y-136160000D03*
X63230000Y-138160000D03*
X63230000Y-136160000D03*
X65230000Y-138160000D03*
X65230000Y-136160000D03*
X67230000Y-138160000D03*
X67230000Y-136160000D03*
X69230000Y-138160000D03*
X69230000Y-136160000D03*
X71230000Y-138160000D03*
X71230000Y-136160000D03*
D17*
X61341000Y-116205000D03*
X61341000Y-114935000D03*
X62611000Y-116205000D03*
X62611000Y-114935000D03*
X63881000Y-116205000D03*
X63881000Y-114935000D03*
X65151000Y-116205000D03*
X65151000Y-114935000D03*
X66421000Y-116205000D03*
X66421000Y-114935000D03*
X80772000Y-116205000D03*
X80772000Y-114935000D03*
X82042000Y-116205000D03*
X82042000Y-114935000D03*
X83312000Y-116205000D03*
X83312000Y-114935000D03*
X84582000Y-116205000D03*
X84582000Y-114935000D03*
X85852000Y-116205000D03*
X85852000Y-114935000D03*
M02*
